<svg height="511pt" viewBox="0 0 511.99988 511" width="511pt" xmlns="http://www.w3.org/2000/svg"><path style="fill:rgb(184,199,206);" d="m511.417969 493.285156c-.132813-.460937-12.179688-42.492187-53.414063-186.214844-1.851562-6.457031-7.757812-10.90625-14.476562-10.90625-12.578125 0-356.726563 0-375.054688 0-6.71875 0-12.625 4.449219-14.476562 10.90625-32.738282 114.171876-20.617188 71.902344-53.410156 186.210938-1.304688 4.542969-.398438 9.4375 2.445312 13.214844s7.300781 5.996094 12.027344 5.996094h481.882812c4.726563 0 9.179688-2.21875 12.027344-5.996094 2.84375-3.777344 3.75-8.667969 2.449219-13.210938zm-61.167969-104.015625h-109.992188l-5.953124-62.988281h97.878906zm-146.195312-62.988281 5.945312 62.988281h-108l5.945312-62.988281zm-224.234376 0h97.875l-5.941406 62.988281h-110.003906zm-26.703124 93.105469h115.792968l-5.953125 62.988281h-127.910156zm140.089843 62.988281 5.949219-62.988281h113.6875l5.949219 62.988281zm155.839844 0-5.945313-62.988281h115.789063l18.066406 62.988281zm0 0"/><path style="fill:yellow;" d="m140.644531 206.84375 25.894531 9.304688c3.292969 1.183593 5.554688 4.207031 5.761719 7.703124l1.21875 20.648438c1.691407 28.675781 32.835938 45.625 57.824219 31.570312l20.378906-11.464843c2.636719-1.484375 5.917969-1.484375 8.558594 0l20.375 11.464843c25.042969 14.085938 56.136719-2.945312 57.824219-31.570312l1.21875-20.648438c.207031-3.496093 2.46875-6.519531 5.761719-7.703124l25.894531-9.304688c27.21875-9.785156 34.558593-44.773438 13.65625-64.6875l-19.78125-18.84375c-2.648438-2.523438-3.441407-6.46875-1.976563-9.820312l8.96875-20.503907c11.402344-26.0625-8.144531-55.207031-36.78125-54.398437l-27.953125.855468c-.089843.003907-.175781.003907-.265625.003907-2.917968 0-5.699218-1.492188-7.304687-3.945313l-11.414063-17.4375c0-.003906 0-.003906 0-.003906-15.335937-23.429688-49.6875-23.40625-65.007812.003906l-11.410156 17.4375c-1.65625 2.527344-4.574219 4.035156-7.574219 3.941406l-27.953125-.855468c-28.511719-.878906-48.214844 28.261718-36.78125 54.398437l8.96875 20.503907c1.46875 3.351562.671875 7.296874-1.976563 9.820312l-19.78125 18.84375c-20.941406 19.953125-13.507812 54.921875 13.65625 64.6875zm7.117188-42.878906 19.78125-18.84375c11.785156-11.226563 15.320312-28.789063 8.796875-43.699219l-8.972656-20.503906c-2.554688-5.84375 1.820312-12.410157 8.265624-12.222657l27.953126.855469c13.425781.410157 26.339843-6.3125 33.695312-17.554687l11.414062-17.4375c3.445313-5.265625 11.160157-5.265625 14.605469 0l11.414063 17.4375c7.355468 11.242187 20.273437 17.984375 33.695312 17.554687l27.953125-.855469c6.429688-.160156 10.832031 6.351563 8.265625 12.222657l-8.972656 20.503906c-6.523438 14.914063-2.988281 32.472656 8.796875 43.699219l19.78125 18.84375c4.703125 4.480468 3.042969 12.339844-3.066406 14.535156l-25.898438 9.304688c-14.65625 5.269531-24.722656 18.722656-25.636719 34.273437l-1.21875 20.648437c-.378906 6.429688-7.359374 10.261719-12.992187 7.09375l-20.378906-11.460937c-11.75-6.613281-26.34375-6.613281-38.089844 0l-20.378906 11.460937c-5.636719 3.167969-12.613281-.667968-12.992188-7.09375l-1.21875-20.648437c-.917969-15.550781-10.980469-29.003906-25.640625-34.273437l-25.894531-9.304688c-6.109375-2.195312-7.765625-10.058594-3.066406-14.535156zm0 0"/><path style="fill:rgb(184,199,206);" d="m256 212.078125c36.960938 0 67.03125-30.070313 67.03125-67.03125 0-36.964844-30.070312-67.035156-67.03125-67.035156s-67.03125 30.070312-67.03125 67.035156c0 36.960937 30.070312 67.03125 67.03125 67.03125zm0-103.945313c20.355469 0 36.914062 16.558594 36.914062 36.914063s-16.558593 36.914063-36.914062 36.914063-36.914062-16.558594-36.914062-36.914063 16.558593-36.914063 36.914062-36.914063zm0 0"/></svg>