<?xml version="1.0" encoding="iso-8859-1"?>
<!-- Generator: Adobe Illustrator 19.0.0, SVG Export Plug-In . SVG Version: 6.00 Build 0)  -->
<svg version="1.1" id="Layer_1" xmlns="http://www.w3.org/2000/svg" xmlns:xlink="http://www.w3.org/1999/xlink" x="0px" y="0px"
	 viewBox="0 0 512 512" style="enable-background:new 0 0 512 512;fill:rgb(184,199,206);" xml:space="preserve">
<g>
	<g>
		<path d="M443.664,0H83.168C58.976,0,32,19.648,32,47.808V496c0,8.848,7.168,16,16,16h416c8.832,0,16-7.152,16-16V47.808
			C480,6.224,457.248,0,443.664,0z M448,480H64V47.808C64,38.8,75.632,32,83.168,32h360.496c1.088,0,1.648,0.112,1.68,0.128
			C445.36,32.144,448,35.04,448,47.808V480z"/>
	</g>
</g>
<g>
	<g>
		<path d="M464,96H48c-8.832,0-16,7.152-16,16s7.168,16,16,16h416c8.832,0,16-7.152,16-16S472.832,96,464,96z"/>
	</g>
</g>
<g>
	<g>
		<path d="M464,416H48c-8.832,0-16,7.152-16,16c0,8.848,7.168,16,16,16h416c8.832,0,16-7.152,16-16C480,423.152,472.832,416,464,416
			z"/>
	</g>
</g>
<g>
	<g>
		<path d="M352,48h-48c-8.832,0-16,7.152-16,16s7.168,16,16,16h48c8.832,0,16-7.152,16-16S360.832,48,352,48z"/>
	</g>
</g>
<g>
	<g>
		<path d="M274.72,53.104c-5.92-5.904-16.64-5.904-22.56,0c-3.04,3.04-4.64,7.2-4.64,11.376c0,4.16,1.6,8.32,4.64,11.36
			c3.04,2.88,7.04,4.64,11.36,4.64c4.16,0,8.32-1.76,11.2-4.64c3.04-3.04,4.8-7.2,4.8-11.36
			C279.52,60.304,277.76,56.144,274.72,53.104z"/>
	</g>
</g>
<g>
	<g>
		<path d="M226.88,53.104c-5.92-5.904-16.8-5.904-22.72,0c-2.88,3.04-4.64,7.2-4.64,11.376c0,4.16,1.76,8.32,4.64,11.36
			c3.04,2.88,7.2,4.64,11.36,4.64c4.16,0,8.32-1.76,11.36-4.64c2.88-3.04,4.64-7.2,4.64-11.36
			C231.52,60.304,229.76,56.144,226.88,53.104z"/>
	</g>
</g>
<g>
	<g>
		<path d="M416,144H96c-8.832,0-16,7.152-16,16v224c0,8.848,7.168,16,16,16h320c8.832,0,16-7.152,16-16V160
			C432,151.152,424.832,144,416,144z M400,368H112V176h288V368z"/>
	</g>
</g>
<g>
</g>
<g>
</g>
<g>
</g>
<g>
</g>
<g>
</g>
<g>
</g>
<g>
</g>
<g>
</g>
<g>
</g>
<g>
</g>
<g>
</g>
<g>
</g>
<g>
</g>
<g>
</g>
<g>
</g>
</svg>
